<mxfile host="app.diagrams.net" modified="2022-05-06T11:33:30.960Z" agent="5.0 (Windows NT 10.0; Win64; x64) AppleWebKit/537.36 (KHTML, like Gecko) Chrome/101.0.4951.41 Safari/537.36 Edg/101.0.1210.32" etag="uT1rxVQBYRtzu3dAWe5g" version="18.0.1" type="github">
  <diagram id="C5RBs43oDa-KdzZeNtuy" name="Page-1">
    <mxGraphModel dx="1621" dy="1106" grid="0" gridSize="10" guides="1" tooltips="1" connect="1" arrows="1" fold="1" page="0" pageScale="1" pageWidth="827" pageHeight="1169" math="0" shadow="0">
      <root>
        <mxCell id="WIyWlLk6GJQsqaUBKTNV-0" />
        <mxCell id="WIyWlLk6GJQsqaUBKTNV-1" parent="WIyWlLk6GJQsqaUBKTNV-0" />
        <mxCell id="QwcWO9MusbjQHcq9Yr0H-35" style="edgeStyle=orthogonalEdgeStyle;rounded=0;orthogonalLoop=1;jettySize=auto;html=1;entryX=0.5;entryY=0;entryDx=0;entryDy=0;" edge="1" parent="WIyWlLk6GJQsqaUBKTNV-1" source="QwcWO9MusbjQHcq9Yr0H-0" target="QwcWO9MusbjQHcq9Yr0H-1">
          <mxGeometry relative="1" as="geometry" />
        </mxCell>
        <mxCell id="QwcWO9MusbjQHcq9Yr0H-0" value="进入函数" style="rounded=1;whiteSpace=wrap;html=1;arcSize=50;" vertex="1" parent="WIyWlLk6GJQsqaUBKTNV-1">
          <mxGeometry x="183.5" y="-10" width="96" height="48" as="geometry" />
        </mxCell>
        <mxCell id="QwcWO9MusbjQHcq9Yr0H-36" style="edgeStyle=orthogonalEdgeStyle;rounded=0;orthogonalLoop=1;jettySize=auto;html=1;" edge="1" parent="WIyWlLk6GJQsqaUBKTNV-1" source="QwcWO9MusbjQHcq9Yr0H-1" target="QwcWO9MusbjQHcq9Yr0H-2">
          <mxGeometry relative="1" as="geometry" />
        </mxCell>
        <mxCell id="QwcWO9MusbjQHcq9Yr0H-1" value="读取RTC寄存器" style="rounded=1;whiteSpace=wrap;html=1;arcSize=0;" vertex="1" parent="WIyWlLk6GJQsqaUBKTNV-1">
          <mxGeometry x="181" y="59" width="101" height="43" as="geometry" />
        </mxCell>
        <mxCell id="QwcWO9MusbjQHcq9Yr0H-37" style="edgeStyle=orthogonalEdgeStyle;rounded=0;orthogonalLoop=1;jettySize=auto;html=1;entryX=0.5;entryY=0;entryDx=0;entryDy=0;" edge="1" parent="WIyWlLk6GJQsqaUBKTNV-1" source="QwcWO9MusbjQHcq9Yr0H-2" target="QwcWO9MusbjQHcq9Yr0H-3">
          <mxGeometry relative="1" as="geometry" />
        </mxCell>
        <mxCell id="QwcWO9MusbjQHcq9Yr0H-2" value="根据读取到的RTC数据初始化各输入框起始输入坐标" style="rounded=1;whiteSpace=wrap;html=1;arcSize=0;" vertex="1" parent="WIyWlLk6GJQsqaUBKTNV-1">
          <mxGeometry x="157" y="124" width="149" height="41" as="geometry" />
        </mxCell>
        <mxCell id="QwcWO9MusbjQHcq9Yr0H-38" style="edgeStyle=orthogonalEdgeStyle;rounded=0;orthogonalLoop=1;jettySize=auto;html=1;entryX=0.5;entryY=0;entryDx=0;entryDy=0;" edge="1" parent="WIyWlLk6GJQsqaUBKTNV-1" source="QwcWO9MusbjQHcq9Yr0H-3" target="QwcWO9MusbjQHcq9Yr0H-4">
          <mxGeometry relative="1" as="geometry" />
        </mxCell>
        <mxCell id="QwcWO9MusbjQHcq9Yr0H-3" value="清屏并显示页面" style="rounded=1;whiteSpace=wrap;html=1;arcSize=0;" vertex="1" parent="WIyWlLk6GJQsqaUBKTNV-1">
          <mxGeometry x="181" y="187" width="101" height="43" as="geometry" />
        </mxCell>
        <mxCell id="QwcWO9MusbjQHcq9Yr0H-39" style="edgeStyle=orthogonalEdgeStyle;rounded=0;orthogonalLoop=1;jettySize=auto;html=1;exitX=1;exitY=0.5;exitDx=0;exitDy=0;" edge="1" parent="WIyWlLk6GJQsqaUBKTNV-1" source="QwcWO9MusbjQHcq9Yr0H-4" target="QwcWO9MusbjQHcq9Yr0H-5">
          <mxGeometry relative="1" as="geometry" />
        </mxCell>
        <mxCell id="QwcWO9MusbjQHcq9Yr0H-41" style="edgeStyle=orthogonalEdgeStyle;rounded=0;orthogonalLoop=1;jettySize=auto;html=1;" edge="1" parent="WIyWlLk6GJQsqaUBKTNV-1" source="QwcWO9MusbjQHcq9Yr0H-4">
          <mxGeometry relative="1" as="geometry">
            <mxPoint x="230.75" y="337.3428431919642" as="targetPoint" />
          </mxGeometry>
        </mxCell>
        <mxCell id="QwcWO9MusbjQHcq9Yr0H-4" value="页面更新标志 == 1" style="rhombus;whiteSpace=wrap;html=1;" vertex="1" parent="WIyWlLk6GJQsqaUBKTNV-1">
          <mxGeometry x="157" y="250" width="147.5" height="68" as="geometry" />
        </mxCell>
        <mxCell id="QwcWO9MusbjQHcq9Yr0H-5" value="将所有输入框调整到正常颜色，而后将选中的输入框亮红显示" style="rounded=1;whiteSpace=wrap;html=1;arcSize=0;" vertex="1" parent="WIyWlLk6GJQsqaUBKTNV-1">
          <mxGeometry x="345" y="263.5" width="172" height="41" as="geometry" />
        </mxCell>
        <mxCell id="QwcWO9MusbjQHcq9Yr0H-42" style="edgeStyle=orthogonalEdgeStyle;rounded=0;orthogonalLoop=1;jettySize=auto;html=1;entryX=0.5;entryY=0;entryDx=0;entryDy=0;" edge="1" parent="WIyWlLk6GJQsqaUBKTNV-1" source="QwcWO9MusbjQHcq9Yr0H-7" target="QwcWO9MusbjQHcq9Yr0H-10">
          <mxGeometry relative="1" as="geometry" />
        </mxCell>
        <mxCell id="QwcWO9MusbjQHcq9Yr0H-7" value="扫描触摸按键" style="rounded=1;whiteSpace=wrap;html=1;arcSize=0;" vertex="1" parent="WIyWlLk6GJQsqaUBKTNV-1">
          <mxGeometry x="177.75" y="339" width="107.5" height="36" as="geometry" />
        </mxCell>
        <mxCell id="QwcWO9MusbjQHcq9Yr0H-44" style="edgeStyle=orthogonalEdgeStyle;rounded=0;orthogonalLoop=1;jettySize=auto;html=1;entryX=0;entryY=0.5;entryDx=0;entryDy=0;" edge="1" parent="WIyWlLk6GJQsqaUBKTNV-1" source="QwcWO9MusbjQHcq9Yr0H-10" target="QwcWO9MusbjQHcq9Yr0H-11">
          <mxGeometry relative="1" as="geometry" />
        </mxCell>
        <mxCell id="QwcWO9MusbjQHcq9Yr0H-49" style="edgeStyle=orthogonalEdgeStyle;rounded=0;orthogonalLoop=1;jettySize=auto;html=1;entryX=0.5;entryY=0;entryDx=0;entryDy=0;" edge="1" parent="WIyWlLk6GJQsqaUBKTNV-1" source="QwcWO9MusbjQHcq9Yr0H-10" target="QwcWO9MusbjQHcq9Yr0H-12">
          <mxGeometry relative="1" as="geometry" />
        </mxCell>
        <mxCell id="QwcWO9MusbjQHcq9Yr0H-10" value="触摸输入框" style="rhombus;whiteSpace=wrap;html=1;" vertex="1" parent="WIyWlLk6GJQsqaUBKTNV-1">
          <mxGeometry x="-14" y="396" width="147.5" height="56" as="geometry" />
        </mxCell>
        <mxCell id="QwcWO9MusbjQHcq9Yr0H-47" style="edgeStyle=orthogonalEdgeStyle;rounded=0;orthogonalLoop=1;jettySize=auto;html=1;entryX=0.5;entryY=0;entryDx=0;entryDy=0;" edge="1" parent="WIyWlLk6GJQsqaUBKTNV-1" source="QwcWO9MusbjQHcq9Yr0H-11" target="QwcWO9MusbjQHcq9Yr0H-14">
          <mxGeometry relative="1" as="geometry" />
        </mxCell>
        <mxCell id="QwcWO9MusbjQHcq9Yr0H-11" value="触摸键盘" style="rhombus;whiteSpace=wrap;html=1;" vertex="1" parent="WIyWlLk6GJQsqaUBKTNV-1">
          <mxGeometry x="157" y="394.5" width="147.5" height="59" as="geometry" />
        </mxCell>
        <mxCell id="QwcWO9MusbjQHcq9Yr0H-50" style="edgeStyle=orthogonalEdgeStyle;rounded=0;orthogonalLoop=1;jettySize=auto;html=1;" edge="1" parent="WIyWlLk6GJQsqaUBKTNV-1" source="QwcWO9MusbjQHcq9Yr0H-12" target="QwcWO9MusbjQHcq9Yr0H-13">
          <mxGeometry relative="1" as="geometry" />
        </mxCell>
        <mxCell id="QwcWO9MusbjQHcq9Yr0H-12" value="选中对应输入框" style="rounded=1;whiteSpace=wrap;html=1;arcSize=0;" vertex="1" parent="WIyWlLk6GJQsqaUBKTNV-1">
          <mxGeometry x="6" y="473" width="107.5" height="36" as="geometry" />
        </mxCell>
        <mxCell id="QwcWO9MusbjQHcq9Yr0H-66" style="edgeStyle=elbowEdgeStyle;rounded=0;orthogonalLoop=1;jettySize=auto;html=1;" edge="1" parent="WIyWlLk6GJQsqaUBKTNV-1" source="QwcWO9MusbjQHcq9Yr0H-13">
          <mxGeometry relative="1" as="geometry">
            <mxPoint x="223" y="243" as="targetPoint" />
            <Array as="points">
              <mxPoint x="-31" y="399" />
            </Array>
          </mxGeometry>
        </mxCell>
        <mxCell id="QwcWO9MusbjQHcq9Yr0H-13" value="页面更新标志置1" style="rounded=1;whiteSpace=wrap;html=1;arcSize=0;" vertex="1" parent="WIyWlLk6GJQsqaUBKTNV-1">
          <mxGeometry x="6" y="528" width="107.5" height="36" as="geometry" />
        </mxCell>
        <mxCell id="QwcWO9MusbjQHcq9Yr0H-51" style="edgeStyle=orthogonalEdgeStyle;rounded=0;orthogonalLoop=1;jettySize=auto;html=1;entryX=0.5;entryY=0;entryDx=0;entryDy=0;" edge="1" parent="WIyWlLk6GJQsqaUBKTNV-1" source="QwcWO9MusbjQHcq9Yr0H-14" target="QwcWO9MusbjQHcq9Yr0H-16">
          <mxGeometry relative="1" as="geometry" />
        </mxCell>
        <mxCell id="QwcWO9MusbjQHcq9Yr0H-14" value="调用键盘扫描函数，并得到返回值key" style="rounded=1;whiteSpace=wrap;html=1;arcSize=0;" vertex="1" parent="WIyWlLk6GJQsqaUBKTNV-1">
          <mxGeometry x="173.5" y="473" width="116" height="44" as="geometry" />
        </mxCell>
        <mxCell id="QwcWO9MusbjQHcq9Yr0H-52" style="edgeStyle=orthogonalEdgeStyle;rounded=0;orthogonalLoop=1;jettySize=auto;html=1;entryX=0.5;entryY=0;entryDx=0;entryDy=0;" edge="1" parent="WIyWlLk6GJQsqaUBKTNV-1" source="QwcWO9MusbjQHcq9Yr0H-16" target="QwcWO9MusbjQHcq9Yr0H-18">
          <mxGeometry relative="1" as="geometry" />
        </mxCell>
        <mxCell id="QwcWO9MusbjQHcq9Yr0H-55" style="edgeStyle=orthogonalEdgeStyle;rounded=0;orthogonalLoop=1;jettySize=auto;html=1;entryX=0;entryY=0.5;entryDx=0;entryDy=0;" edge="1" parent="WIyWlLk6GJQsqaUBKTNV-1" source="QwcWO9MusbjQHcq9Yr0H-16" target="QwcWO9MusbjQHcq9Yr0H-22">
          <mxGeometry relative="1" as="geometry" />
        </mxCell>
        <mxCell id="QwcWO9MusbjQHcq9Yr0H-16" value="key的值为数字字符" style="rhombus;whiteSpace=wrap;html=1;" vertex="1" parent="WIyWlLk6GJQsqaUBKTNV-1">
          <mxGeometry x="157" y="537.5" width="147.5" height="59" as="geometry" />
        </mxCell>
        <mxCell id="QwcWO9MusbjQHcq9Yr0H-54" style="edgeStyle=orthogonalEdgeStyle;rounded=0;orthogonalLoop=1;jettySize=auto;html=1;entryX=0.5;entryY=0;entryDx=0;entryDy=0;" edge="1" parent="WIyWlLk6GJQsqaUBKTNV-1" source="QwcWO9MusbjQHcq9Yr0H-17" target="QwcWO9MusbjQHcq9Yr0H-19">
          <mxGeometry relative="1" as="geometry" />
        </mxCell>
        <mxCell id="QwcWO9MusbjQHcq9Yr0H-57" style="edgeStyle=orthogonalEdgeStyle;rounded=0;orthogonalLoop=1;jettySize=auto;html=1;entryX=0;entryY=0.5;entryDx=0;entryDy=0;" edge="1" parent="WIyWlLk6GJQsqaUBKTNV-1" source="QwcWO9MusbjQHcq9Yr0H-17" target="QwcWO9MusbjQHcq9Yr0H-24">
          <mxGeometry relative="1" as="geometry" />
        </mxCell>
        <mxCell id="QwcWO9MusbjQHcq9Yr0H-17" value="key的值为退格" style="rhombus;whiteSpace=wrap;html=1;" vertex="1" parent="WIyWlLk6GJQsqaUBKTNV-1">
          <mxGeometry x="157" y="697" width="147.5" height="59" as="geometry" />
        </mxCell>
        <mxCell id="QwcWO9MusbjQHcq9Yr0H-53" style="edgeStyle=orthogonalEdgeStyle;rounded=0;orthogonalLoop=1;jettySize=auto;html=1;entryX=0.5;entryY=0;entryDx=0;entryDy=0;" edge="1" parent="WIyWlLk6GJQsqaUBKTNV-1" source="QwcWO9MusbjQHcq9Yr0H-18" target="QwcWO9MusbjQHcq9Yr0H-17">
          <mxGeometry relative="1" as="geometry" />
        </mxCell>
        <mxCell id="QwcWO9MusbjQHcq9Yr0H-56" style="edgeStyle=orthogonalEdgeStyle;rounded=0;orthogonalLoop=1;jettySize=auto;html=1;" edge="1" parent="WIyWlLk6GJQsqaUBKTNV-1" source="QwcWO9MusbjQHcq9Yr0H-18" target="QwcWO9MusbjQHcq9Yr0H-23">
          <mxGeometry relative="1" as="geometry" />
        </mxCell>
        <mxCell id="QwcWO9MusbjQHcq9Yr0H-18" value="key的值为清除" style="rhombus;whiteSpace=wrap;html=1;" vertex="1" parent="WIyWlLk6GJQsqaUBKTNV-1">
          <mxGeometry x="157" y="617" width="147.5" height="59" as="geometry" />
        </mxCell>
        <mxCell id="QwcWO9MusbjQHcq9Yr0H-58" style="edgeStyle=orthogonalEdgeStyle;rounded=0;orthogonalLoop=1;jettySize=auto;html=1;entryX=0;entryY=0.5;entryDx=0;entryDy=0;" edge="1" parent="WIyWlLk6GJQsqaUBKTNV-1" source="QwcWO9MusbjQHcq9Yr0H-19" target="QwcWO9MusbjQHcq9Yr0H-26">
          <mxGeometry relative="1" as="geometry" />
        </mxCell>
        <mxCell id="QwcWO9MusbjQHcq9Yr0H-19" value="key的值为回车" style="rhombus;whiteSpace=wrap;html=1;" vertex="1" parent="WIyWlLk6GJQsqaUBKTNV-1">
          <mxGeometry x="157" y="776" width="147.5" height="59" as="geometry" />
        </mxCell>
        <mxCell id="QwcWO9MusbjQHcq9Yr0H-64" style="edgeStyle=elbowEdgeStyle;rounded=0;orthogonalLoop=1;jettySize=auto;elbow=vertical;html=1;" edge="1" parent="WIyWlLk6GJQsqaUBKTNV-1" source="QwcWO9MusbjQHcq9Yr0H-20">
          <mxGeometry relative="1" as="geometry">
            <mxPoint x="659.666748046875" y="567" as="targetPoint" />
          </mxGeometry>
        </mxCell>
        <mxCell id="QwcWO9MusbjQHcq9Yr0H-20" value="成功输入，并在屏幕上显示输入" style="rounded=0;whiteSpace=wrap;html=1;" vertex="1" parent="WIyWlLk6GJQsqaUBKTNV-1">
          <mxGeometry x="503.5" y="537" width="120" height="60" as="geometry" />
        </mxCell>
        <mxCell id="QwcWO9MusbjQHcq9Yr0H-61" style="edgeStyle=orthogonalEdgeStyle;rounded=0;orthogonalLoop=1;jettySize=auto;html=1;entryX=0;entryY=0.5;entryDx=0;entryDy=0;" edge="1" parent="WIyWlLk6GJQsqaUBKTNV-1" source="QwcWO9MusbjQHcq9Yr0H-22" target="QwcWO9MusbjQHcq9Yr0H-20">
          <mxGeometry relative="1" as="geometry" />
        </mxCell>
        <mxCell id="QwcWO9MusbjQHcq9Yr0H-63" style="edgeStyle=elbowEdgeStyle;rounded=0;orthogonalLoop=1;jettySize=auto;html=1;elbow=vertical;" edge="1" parent="WIyWlLk6GJQsqaUBKTNV-1" source="QwcWO9MusbjQHcq9Yr0H-22">
          <mxGeometry relative="1" as="geometry">
            <mxPoint x="658" y="390" as="targetPoint" />
            <Array as="points">
              <mxPoint x="508" y="390" />
            </Array>
          </mxGeometry>
        </mxCell>
        <mxCell id="QwcWO9MusbjQHcq9Yr0H-22" value="输入栏未超过输入限制&amp;nbsp;" style="rhombus;whiteSpace=wrap;html=1;" vertex="1" parent="WIyWlLk6GJQsqaUBKTNV-1">
          <mxGeometry x="328.38" y="537" width="147.5" height="59" as="geometry" />
        </mxCell>
        <mxCell id="QwcWO9MusbjQHcq9Yr0H-77" style="edgeStyle=elbowEdgeStyle;rounded=0;orthogonalLoop=1;jettySize=auto;html=1;" edge="1" parent="WIyWlLk6GJQsqaUBKTNV-1" source="QwcWO9MusbjQHcq9Yr0H-23">
          <mxGeometry relative="1" as="geometry">
            <mxPoint x="658.2000558035713" y="646.5" as="targetPoint" />
          </mxGeometry>
        </mxCell>
        <mxCell id="QwcWO9MusbjQHcq9Yr0H-23" value="清空输入栏，输入坐标挪移到起始位置" style="rounded=0;whiteSpace=wrap;html=1;" vertex="1" parent="WIyWlLk6GJQsqaUBKTNV-1">
          <mxGeometry x="339.63" y="624" width="125" height="45" as="geometry" />
        </mxCell>
        <mxCell id="QwcWO9MusbjQHcq9Yr0H-78" style="edgeStyle=elbowEdgeStyle;rounded=0;orthogonalLoop=1;jettySize=auto;html=1;" edge="1" parent="WIyWlLk6GJQsqaUBKTNV-1" source="QwcWO9MusbjQHcq9Yr0H-24">
          <mxGeometry relative="1" as="geometry">
            <mxPoint x="658.6571568080358" y="726.5" as="targetPoint" />
          </mxGeometry>
        </mxCell>
        <mxCell id="QwcWO9MusbjQHcq9Yr0H-24" value="输入栏清除一个字符，并将输入坐标向后挪移" style="rounded=0;whiteSpace=wrap;html=1;" vertex="1" parent="WIyWlLk6GJQsqaUBKTNV-1">
          <mxGeometry x="339.63" y="704.5" width="129" height="44" as="geometry" />
        </mxCell>
        <mxCell id="QwcWO9MusbjQHcq9Yr0H-59" style="edgeStyle=orthogonalEdgeStyle;rounded=0;orthogonalLoop=1;jettySize=auto;html=1;entryX=0.5;entryY=0;entryDx=0;entryDy=0;" edge="1" parent="WIyWlLk6GJQsqaUBKTNV-1" source="QwcWO9MusbjQHcq9Yr0H-26" target="QwcWO9MusbjQHcq9Yr0H-28">
          <mxGeometry relative="1" as="geometry" />
        </mxCell>
        <mxCell id="QwcWO9MusbjQHcq9Yr0H-72" style="edgeStyle=elbowEdgeStyle;rounded=0;orthogonalLoop=1;jettySize=auto;html=1;entryX=0;entryY=0.5;entryDx=0;entryDy=0;" edge="1" parent="WIyWlLk6GJQsqaUBKTNV-1" source="QwcWO9MusbjQHcq9Yr0H-26" target="QwcWO9MusbjQHcq9Yr0H-70">
          <mxGeometry relative="1" as="geometry" />
        </mxCell>
        <mxCell id="QwcWO9MusbjQHcq9Yr0H-26" value="当前输入框为最后一个&lt;br&gt;或无选中输入框" style="rhombus;whiteSpace=wrap;html=1;" vertex="1" parent="WIyWlLk6GJQsqaUBKTNV-1">
          <mxGeometry x="323.76" y="764.5" width="160.75" height="82" as="geometry" />
        </mxCell>
        <mxCell id="QwcWO9MusbjQHcq9Yr0H-60" style="edgeStyle=orthogonalEdgeStyle;rounded=0;orthogonalLoop=1;jettySize=auto;html=1;entryX=0.5;entryY=0;entryDx=0;entryDy=0;" edge="1" parent="WIyWlLk6GJQsqaUBKTNV-1" source="QwcWO9MusbjQHcq9Yr0H-28" target="QwcWO9MusbjQHcq9Yr0H-31">
          <mxGeometry relative="1" as="geometry" />
        </mxCell>
        <mxCell id="QwcWO9MusbjQHcq9Yr0H-73" style="edgeStyle=elbowEdgeStyle;rounded=0;orthogonalLoop=1;jettySize=auto;html=1;entryX=0;entryY=0.5;entryDx=0;entryDy=0;" edge="1" parent="WIyWlLk6GJQsqaUBKTNV-1" source="QwcWO9MusbjQHcq9Yr0H-28" target="QwcWO9MusbjQHcq9Yr0H-71">
          <mxGeometry relative="1" as="geometry" />
        </mxCell>
        <mxCell id="QwcWO9MusbjQHcq9Yr0H-28" value="所有输入框中的&lt;br&gt;当前数值为有效值" style="rhombus;whiteSpace=wrap;html=1;" vertex="1" parent="WIyWlLk6GJQsqaUBKTNV-1">
          <mxGeometry x="320.64" y="870" width="167" height="76" as="geometry" />
        </mxCell>
        <mxCell id="QwcWO9MusbjQHcq9Yr0H-31" value="退出函数" style="rounded=1;whiteSpace=wrap;html=1;arcSize=50;" vertex="1" parent="WIyWlLk6GJQsqaUBKTNV-1">
          <mxGeometry x="356.14" y="969" width="96" height="48" as="geometry" />
        </mxCell>
        <mxCell id="QwcWO9MusbjQHcq9Yr0H-79" style="edgeStyle=elbowEdgeStyle;rounded=0;orthogonalLoop=1;jettySize=auto;html=1;" edge="1" parent="WIyWlLk6GJQsqaUBKTNV-1" source="QwcWO9MusbjQHcq9Yr0H-70">
          <mxGeometry relative="1" as="geometry">
            <mxPoint x="658.6571568080358" y="805.5" as="targetPoint" />
          </mxGeometry>
        </mxCell>
        <mxCell id="QwcWO9MusbjQHcq9Yr0H-70" value="选中下一个输入框" style="rounded=0;whiteSpace=wrap;html=1;" vertex="1" parent="WIyWlLk6GJQsqaUBKTNV-1">
          <mxGeometry x="526" y="779.5" width="69" height="52" as="geometry" />
        </mxCell>
        <mxCell id="QwcWO9MusbjQHcq9Yr0H-76" style="edgeStyle=elbowEdgeStyle;rounded=0;orthogonalLoop=1;jettySize=auto;html=1;" edge="1" parent="WIyWlLk6GJQsqaUBKTNV-1" source="QwcWO9MusbjQHcq9Yr0H-71">
          <mxGeometry relative="1" as="geometry">
            <mxPoint x="240" y="243" as="targetPoint" />
            <Array as="points">
              <mxPoint x="660" y="861" />
            </Array>
          </mxGeometry>
        </mxCell>
        <mxCell id="QwcWO9MusbjQHcq9Yr0H-71" value="选中无效输入的输入框" style="rounded=0;whiteSpace=wrap;html=1;" vertex="1" parent="WIyWlLk6GJQsqaUBKTNV-1">
          <mxGeometry x="526" y="882" width="69" height="52" as="geometry" />
        </mxCell>
      </root>
    </mxGraphModel>
  </diagram>
</mxfile>
